<?xml version="1.0" standalone="no"?>
<!DOCTYPE svg PUBLIC "-//W3C//DTD SVG 20010904//EN"
 "http://www.w3.org/TR/2001/REC-SVG-20010904/DTD/svg10.dtd">
<svg version="1.0" xmlns="http://www.w3.org/2000/svg"
 width="140.000000pt" height="150.000000pt" viewBox="0 0 140.000000 150.000000"
 preserveAspectRatio="xMidYMid meet">

<g transform="translate(0.000000,150.000000) scale(0.100000,-0.100000)"
fill="#000000" stroke="none">
<path d="M960 1123 c0 -14 19 -38 25 -32 8 8 -5 39 -16 39 -5 0 -9 -3 -9 -7z"/>
<path d="M1067 1113 c-4 -3 -7 -13 -7 -22 1 -13 3 -13 11 2 11 19 8 33 -4 20z"/>
<path d="M300 1081 c0 -5 5 -13 10 -16 6 -3 10 -2 10 4 0 5 -4 13 -10 16 -5 3
-10 2 -10 -4z"/>
<path d="M506 1066 c5 -19 2 -31 -7 -37 -12 -7 -12 -9 0 -9 8 0 11 -6 7 -16
-5 -12 -1 -14 17 -8 30 9 33 12 19 26 -14 14 -16 42 -3 33 5 -3 12 -1 16 5 3
5 -2 10 -12 10 -11 0 -25 6 -32 13 -10 10 -11 6 -5 -17z"/>
<path d="M600 1080 c0 -5 7 -10 16 -10 8 0 12 5 9 10 -3 6 -10 10 -16 10 -5 0
-9 -4 -9 -10z"/>
<path d="M400 1058 c0 -5 -4 -6 -10 -3 -5 3 -10 1 -10 -4 0 -6 10 -11 21 -11
17 0 19 -3 10 -14 -12 -14 -5 -46 9 -46 5 0 12 5 15 11 4 6 13 8 21 5 21 -8
17 12 -5 26 -14 8 -17 16 -10 24 7 8 2 13 -16 16 -14 3 -25 1 -25 -4z m25 -48
c3 -5 1 -10 -4 -10 -6 0 -11 5 -11 10 0 6 2 10 4 10 3 0 8 -4 11 -10z"/>
<path d="M983 1060 c-47 -19 -38 -103 12 -116 31 -8 46 3 19 12 -28 10 -54 35
-54 51 0 39 64 57 94 27 19 -19 21 -55 4 -73 -11 -11 -10 -13 1 -9 47 14 37
82 -14 104 -19 8 -36 14 -37 13 -2 0 -13 -4 -25 -9z"/>
<path d="M1132 1053 c-6 -2 -10 -9 -7 -13 7 -11 35 -2 35 11 0 10 -8 10 -28 2z"/>
<path d="M260 1034 c0 -7 5 -16 11 -19 7 -5 3 -16 -12 -31 -24 -26 -19 -57 8
-52 10 2 22 13 28 26 11 25 25 28 43 10 9 -9 12 -9 12 1 0 7 -13 18 -30 24
-16 6 -30 17 -30 24 0 7 7 10 15 7 8 -4 15 -2 15 4 0 5 -13 12 -30 14 -20 3
-30 0 -30 -8z m30 -63 c0 -12 -20 -25 -27 -18 -7 7 6 27 18 27 5 0 9 -4 9 -9z"/>
<path d="M350 1046 c0 -10 32 -78 35 -74 6 6 -19 78 -27 78 -5 0 -8 -2 -8 -4z"/>
<path d="M595 1040 c3 -5 13 -10 21 -10 8 0 14 -7 14 -15 0 -8 -7 -15 -15 -15
-8 0 -15 -4 -15 -10 0 -13 6 -13 31 0 23 13 25 46 3 54 -24 9 -46 7 -39 -4z"/>
<path d="M800 1036 c0 -8 -10 -16 -22 -18 -12 -2 -23 -9 -26 -17 -3 -9 2 -11
17 -6 17 5 23 1 31 -20 5 -14 15 -23 21 -20 7 5 5 15 -6 32 -15 23 -15 26 1
44 16 17 16 19 1 19 -10 0 -17 -6 -17 -14z"/>
<path d="M680 1030 c0 -5 4 -10 10 -10 5 0 7 -7 4 -15 -4 -8 -1 -15 5 -15 18
0 25 31 10 41 -19 12 -29 11 -29 -1z"/>
<path d="M225 1010 c4 -6 11 -8 16 -5 14 9 11 15 -7 15 -8 0 -12 -5 -9 -10z"/>
<path d="M885 1000 c3 -5 13 -10 21 -10 8 0 14 5 14 10 0 6 -9 10 -21 10 -11
0 -17 -4 -14 -10z"/>
<path d="M1113 967 c2 -7 14 -14 26 -15 28 -4 20 13 -9 21 -14 3 -20 1 -17 -6z"/>
<path d="M415 931 c-73 -18 -112 -66 -122 -152 -5 -39 -2 -53 12 -69 13 -14
15 -28 10 -59 -4 -26 -3 -41 3 -41 6 0 12 15 14 33 2 26 7 31 23 28 11 -2 48
-4 82 -4 55 0 69 4 118 37 30 20 55 42 55 48 0 25 19 -8 25 -44 5 -25 4 -38
-4 -38 -6 0 -11 -5 -11 -10 0 -7 19 -9 50 -7 50 5 68 -6 30 -18 -11 -3 -20
-11 -20 -16 0 -5 -16 -17 -36 -26 -32 -16 -33 -18 -14 -25 18 -7 20 -13 14
-45 -15 -77 -15 -77 56 -90 l65 -12 -97 2 c-53 1 -94 -1 -90 -5 12 -12 193
-11 232 1 19 6 63 11 97 11 55 0 67 4 94 28 l32 29 -10 69 c-10 63 -58 192
-69 181 -2 -2 8 -31 23 -63 18 -40 29 -81 31 -126 4 -61 2 -67 -20 -82 -34
-22 -203 -32 -279 -16 -54 12 -59 15 -52 34 3 12 7 38 8 58 1 30 9 43 43 73
23 21 39 41 36 46 -3 5 -23 9 -45 9 -31 0 -39 4 -39 18 0 9 -9 33 -19 53 -25
46 -37 109 -22 109 6 0 11 5 11 10 0 6 -8 10 -19 10 -10 0 -24 7 -32 16 -30
36 -109 58 -164 45z m147 -66 c7 -9 19 -23 27 -31 21 -23 16 -76 -10 -96 -29
-25 -55 -22 -84 7 -26 25 -31 57 -16 99 14 34 61 47 83 21z"/>
<path d="M940 910 c-8 -5 -11 -12 -7 -16 4 -4 13 -2 19 4 15 15 7 24 -12 12z"/>
<path d="M1040 891 c0 -11 5 -23 10 -26 6 -3 10 3 10 14 0 11 -4 23 -10 26 -5
3 -10 -3 -10 -14z"/>
<path d="M725 859 c39 -5 90 -16 115 -24 24 -8 40 -11 35 -6 -19 17 -119 41
-169 40 -49 -1 -49 -2 19 -10z"/>
<path d="M310 560 c0 -38 23 -84 52 -104 36 -26 41 -18 7 12 -24 21 -32 38
-36 75 -6 52 -23 64 -23 17z"/>
<path d="M271 559 c-1 -32 18 -89 30 -89 12 0 11 14 -2 27 -7 7 -15 29 -19 50
-6 29 -8 32 -9 12z"/>
<path d="M230 502 c0 -5 9 -17 21 -28 21 -19 21 -19 8 9 -12 26 -29 37 -29 19z"/>
</g>
</svg>
